<svg width="64" height="64" xmlns="http://www.w3.org/2000/svg">
  <g>
    <circle fill="#FF6F61" cx="32" cy="32" r="32"/>
    <path fill="#FFFFFF" d="M47.007 24.514c-1.148 0-2.11.861-2.11 2.009s.962 2.009 2.11 2.009 2.11-.861 2.11-2.009-.962-2.009-2.11-2.009zm-8.014-6.025c-1.148 0-2.11.861-2.11 2.009s.962 2.009 2.11 2.009 2.11-.861 2.11-2.009-.962-2.009-2.11-2.009zM32 8.011c-1.148 0-2.11.861-2.11 2.009s.962 2.009 2.11 2.009 2.11-.861 2.11-2.009-.962-2.009-2.11-2.009zm0 35.973c-1.148 0-2.11.861-2.11 2.009s.962 2.009 2.11 2.009 2.11-.861 2.11-2.009-.962-2.009-2.11-2.009zm-8.014 6.025c-1.148 0-2.11.861-2.11 2.009s.962 2.009 2.11 2.009 2.11-.861 2.11-2.009-.962-2.009-2.11-2.009zm16.027 0c-1.148 0-2.11.861-2.11 2.009s.962 2.009 2.11 2.009 2.11-.861 2.11-2.009-.962-2.009-2.11-2.009zm-8.013-14.05c-1.148 0-2.11.861-2.11 2.009s.962 2.009 2.11 2.009 2.11-.861 2.11-2.009-.962-2.009-2.11-2.009zm16.027 0c-1.148 0-2.11.861-2.11 2.009s.962 2.009 2.11 2.009 2.11-.861 2.11-2.009-.962-2.009-2.11-2.009zm-24.04 0c-1.148 0-2.11.861-2.11 2.009s.962 2.009 2.11 2.009 2.11-.861 2.11-2.009-.962-2.009-2.11-2.009zM24.007 8.011c-1.148 0-2.11.861-2.11 2.009s.962 2.009 2.11 2.009 2.11-.861 2.11-2.009-.962-2.009-2.11-2.009zM16 14.486c-1.148 0-2.11.861-2.11 2.009s.962 2.009 2.11 2.009 2.11-.861 2.11-2.009-.962-2.009-2.11-2.009zm16 21.037c-1.148 0-2.11.861-2.11 2.009s.962 2.009 2.11 2.009 2.11-.861 2.11-2.009-.962-2.009-2.11-2.009zm-8.014-6.025c-1.148 0-2.11.861-2.11 2.009s.962 2.009 2.11 2.009 2.11-.861 2.11-2.009-.962-2.009-2.11-2.009zm-8.014-6.025c-1.148 0-2.11.861-2.11 2.009s.962 2.009 2.11 2.009 2.11-.861 2.11-2.009-.962-2.009-2.11-2.009z"/>
  </g>
</svg>
